<svg xmlns="http://www.w3.org/2000/svg" xmlns:xlink="http://www.w3.org/1999/xlink" version="1.2" width="210.00mm" height="297.00mm" viewBox="0.0000 -0.0000 168.0000 237.6000">
<style type="text/css">
<![CDATA[
tspan { white-space: pre; }
]]>
</style>
<g transform="translate(8.0000, 5.5928)">
<text font-family="serif" font-size="2.2000" text-anchor="start" fill="currentColor">
<tspan>2</tspan>
</text>
</g>
<g transform="translate(8.0000, 18.6413)">
<line stroke-linejoin="round" stroke-linecap="round" stroke-width="0.1267" stroke="currentColor" x1="0.0633" y1="0" x2="151.9367" y2="0"/>
</g>
<g transform="translate(8.0000, 17.6413)">
<line stroke-linejoin="round" stroke-linecap="round" stroke-width="0.1267" stroke="currentColor" x1="0.0633" y1="0" x2="151.9367" y2="0"/>
</g>
<g transform="translate(8.0000, 16.6413)">
<line stroke-linejoin="round" stroke-linecap="round" stroke-width="0.1267" stroke="currentColor" x1="0.0633" y1="0" x2="151.9367" y2="0"/>
</g>
<g transform="translate(8.0000, 15.6413)">
<line stroke-linejoin="round" stroke-linecap="round" stroke-width="0.1267" stroke="currentColor" x1="0.0633" y1="0" x2="151.9367" y2="0"/>
</g>
<g transform="translate(8.0000, 14.6413)">
<line stroke-linejoin="round" stroke-linecap="round" stroke-width="0.1267" stroke="currentColor" x1="0.0633" y1="0" x2="151.9367" y2="0"/>
</g>
<g transform="translate(48.0694, 6.5928)">
<rect x="0.0000" y="12.1119" width="0.2407" height="4.4500" ry="0.0000" fill="currentColor"/>
</g>
<g transform="translate(159.7593, 25.1546)">
<rect x="0.0000" y="-2.0633" width="0.2407" height="4.0633" ry="0.0000" fill="currentColor"/>
</g>
<g transform="translate(87.0115, 16.6413)">
<rect x="0.0000" y="-2.0000" width="0.2407" height="4.0633" ry="0.0000" fill="currentColor"/>
</g>
<g transform="translate(48.0694, 25.1546)">
<rect x="0.0000" y="-2.0633" width="0.2407" height="4.0633" ry="0.0000" fill="currentColor"/>
</g>
<g transform="translate(159.7593, 16.6413)">
<rect x="0.0000" y="-2.0000" width="0.2407" height="4.0633" ry="0.0000" fill="currentColor"/>
</g>
<g transform="translate(159.7593, 6.5928)">
<rect x="0.0000" y="12.1119" width="0.2407" height="4.4500" ry="0.0000" fill="currentColor"/>
</g>
<g transform="translate(8.0000, 27.1546)">
<line stroke-linejoin="round" stroke-linecap="round" stroke-width="0.1267" stroke="currentColor" x1="0.0633" y1="0" x2="151.9367" y2="0"/>
</g>
<g transform="translate(8.0000, 26.1546)">
<line stroke-linejoin="round" stroke-linecap="round" stroke-width="0.1267" stroke="currentColor" x1="0.0633" y1="0" x2="151.9367" y2="0"/>
</g>
<g transform="translate(8.0000, 25.1546)">
<line stroke-linejoin="round" stroke-linecap="round" stroke-width="0.1267" stroke="currentColor" x1="0.0633" y1="0" x2="151.9367" y2="0"/>
</g>
<g transform="translate(8.0000, 24.1546)">
<line stroke-linejoin="round" stroke-linecap="round" stroke-width="0.1267" stroke="currentColor" x1="0.0633" y1="0" x2="151.9367" y2="0"/>
</g>
<g transform="translate(8.0000, 23.1546)">
<line stroke-linejoin="round" stroke-linecap="round" stroke-width="0.1267" stroke="currentColor" x1="0.0633" y1="0" x2="151.9367" y2="0"/>
</g>
<g transform="translate(8.0000, 13.6413)">
<rect x="141.8806" y="-0.1133" width="1.9688" height="0.2267" ry="0.1133" fill="currentColor"/>
</g>
<g transform="translate(8.0000, 13.6413)">
<rect x="103.0917" y="-0.1133" width="1.8156" height="0.2267" ry="0.1133" fill="currentColor"/>
</g>
<g transform="translate(8.0000, 13.6413)">
<rect x="69.0452" y="-0.1133" width="1.8156" height="0.2267" ry="0.1133" fill="currentColor"/>
</g>
<g transform="translate(121.0579, 25.1546)">
<rect x="0.0000" y="-2.0633" width="0.2407" height="4.0633" ry="0.0000" fill="currentColor"/>
</g>
<g transform="translate(87.0115, 6.5928)">
<rect x="0.0000" y="12.1119" width="0.2407" height="4.4500" ry="0.0000" fill="currentColor"/>
</g>
<g transform="translate(121.0579, 6.5928)">
<rect x="0.0000" y="12.1119" width="0.2407" height="4.4500" ry="0.0000" fill="currentColor"/>
</g>
<g transform="translate(121.0579, 16.6413)">
<rect x="0.0000" y="-2.0000" width="0.2407" height="4.0633" ry="0.0000" fill="currentColor"/>
</g>
<g transform="translate(48.0694, 16.6413)">
<rect x="0.0000" y="-2.0000" width="0.2407" height="4.0633" ry="0.0000" fill="currentColor"/>
</g>
<g transform="translate(87.0115, 25.1546)">
<rect x="0.0000" y="-2.0633" width="0.2407" height="4.0633" ry="0.0000" fill="currentColor"/>
</g>
<g transform="translate(106.3710, 25.6546)">
<path stroke-width="0.1000" stroke-linejoin="round" stroke-linecap="round" stroke="currentColor" fill="currentColor" d="m0 -0.2500L1.3125 -0.7500L1.3125 0.2500L0 0.7500"/>
</g>
<g transform="translate(107.6582, 25.1546)">
<rect x="-0.0253" y="-2.1758" width="0.0507" height="2.4580" ry="0.0253" fill="currentColor"/>
</g>
<g transform="translate(106.3710, 16.6413)">
<path transform="scale(0.0040, -0.0040)" d="M135 -19v107l-73 48l-62 -36l40 50l65 38l95 -63v-106z" fill="currentColor"/>
</g>
<g transform="translate(100.3254, 26.1546)">
<path transform="scale(0.0040, -0.0040)" d="M33 35l-2 -60v-11c0 -21 2 -43 5 -64c42 38 87 81 87 138c0 32 -13 63 -41 63c-31 0 -48 -32 -49 -66zM32 446l-9 -337c25 26 59 40 95 40c50 0 82 -51 82 -105c0 -77 -80 -117 -137 -169c-18 -17 -26 -48 -52 -48c-16 0 -28 15 -28 32l-15 587c10 6 21 8 32 8
s22 -2 32 -8z" fill="currentColor"/>
</g>
<g transform="translate(102.7879, 22.9109)">
<polygon stroke-linejoin="round" stroke-linecap="round" stroke-width="0.1125" fill="currentColor" stroke="currentColor" points="0 0.2500 1.0000 0.2000 1.0000 -0.3000 0 -0.2500"/>
</g>
<g transform="translate(102.7626, 25.1546)">
<rect x="-0.0253" y="-2.5000" width="0.0507" height="3.2822" ry="0.0253" fill="currentColor"/>
</g>
<g transform="translate(100.0254, 17.1413)">
<path transform="scale(0.0040, -0.0040)" d="M0 114c0 12 7 22 18 26l37 15v151c0 12 10 22 22 22s22 -10 22 -22v-134l77 29v152c0 12 10 22 22 22s22 -10 22 -22v-134l16 6c3 1 8 2 11 2c15 0 28 -12 28 -28v-50c0 -12 -7 -23 -18 -27l-37 -14v-152l16 7c3 1 8 2 11 2c15 0 28 -13 28 -29v-50c0 -12 -7 -22 -18 -26
l-37 -15v-151c0 -12 -10 -22 -22 -22s-22 10 -22 22v134l-77 -29v-152c0 -12 -10 -22 -22 -22s-22 10 -22 22v134l-16 -6c-3 -1 -8 -2 -11 -2c-15 0 -28 12 -28 28v50c0 12 7 23 18 27l37 14v152l-16 -7c-3 -1 -8 -2 -11 -2c-15 0 -28 13 -28 29v50zM176 91l-77 -30v-152
l77 30v152z" fill="currentColor"/>
</g>
<g transform="translate(116.1623, 25.1546)">
<path transform="scale(0.0040, -0.0040)" d="M135 -19v107l-73 48l-62 -36l40 50l65 38l95 -63v-106z" fill="currentColor"/>
</g>
<g transform="translate(116.1623, 16.6413)">
<path transform="scale(0.0040, -0.0040)" d="M135 -19v107l-73 48l-62 -36l40 50l65 38l95 -63v-106z" fill="currentColor"/>
</g>
<g transform="translate(110.2167, 26.1546)">
<path transform="scale(0.0040, -0.0040)" d="M87 -332c-12 0 -22 10 -22 22v107l-22 -14c-5 -3 -10 -4 -15 -4c-15 0 -28 11 -28 28v51c0 10 6 19 14 24l51 31v146l-22 -13c-5 -3 -10 -4 -15 -4c-15 0 -28 11 -28 28v50c0 10 6 19 14 24l51 32v134c0 12 10 22 22 22s23 -10 23 -22v-107l22 14c5 3 10 4 15 4
c15 0 28 -11 28 -28v-51c0 -10 -6 -19 -14 -24l-51 -31v-146l22 13c5 3 10 4 15 4c15 0 28 -11 28 -28v-50c0 -10 -6 -19 -14 -24l-51 -32v-134c0 -12 -11 -22 -23 -22z" fill="currentColor"/>
</g>
<g transform="translate(111.2667, 17.1413)">
<path stroke-width="0.1000" stroke-linejoin="round" stroke-linecap="round" stroke="currentColor" fill="currentColor" d="m0 -0.2500L1.3125 -0.7500L1.3125 0.2500L0 0.7500"/>
</g>
<g transform="translate(112.5538, 25.1546)">
<rect x="-0.0253" y="-2.0009" width="0.0507" height="2.7831" ry="0.0253" fill="currentColor"/>
</g>
<g transform="translate(110.2167, 13.6413)">
<path transform="scale(0.0040, -0.0040)" d="M87 -332c-12 0 -22 10 -22 22v107l-22 -14c-5 -3 -10 -4 -15 -4c-15 0 -28 11 -28 28v51c0 10 6 19 14 24l51 31v146l-22 -13c-5 -3 -10 -4 -15 -4c-15 0 -28 11 -28 28v50c0 10 6 19 14 24l51 32v134c0 12 10 22 22 22s23 -10 23 -22v-107l22 14c5 3 10 4 15 4
c15 0 28 -11 28 -28v-51c0 -10 -6 -19 -14 -24l-51 -31v-146l22 13c5 3 10 4 15 4c15 0 28 -11 28 -28v-50c0 -10 -6 -19 -14 -24l-51 -32v-134c0 -12 -11 -22 -23 -22z" fill="currentColor"/>
</g>
<g transform="translate(109.4500, 17.1413)">
<path transform="scale(0.0040, -0.0040)" d="M-8 375c8 5 18 7 27 7s20 -2 28 -7l-3 -196l99 24h4c11 0 20 -8 20 -19l8 -559c-8 -5 -19 -7 -28 -7s-19 2 -27 7l3 196l-99 -24h-5c-11 0 -19 8 -19 19zM127 109l-85 -20l-2 -198l84 20z" fill="currentColor"/>
</g>
<g transform="translate(110.2167, 17.1413)">
<path transform="scale(0.0040, -0.0040)" d="M87 -332c-12 0 -22 10 -22 22v107l-22 -14c-5 -3 -10 -4 -15 -4c-15 0 -28 11 -28 28v51c0 10 6 19 14 24l51 31v146l-22 -13c-5 -3 -10 -4 -15 -4c-15 0 -28 11 -28 28v50c0 10 6 19 14 24l51 32v134c0 12 10 22 22 22s23 -10 23 -22v-107l22 14c5 3 10 4 15 4
c15 0 28 -11 28 -28v-51c0 -10 -6 -19 -14 -24l-51 -31v-146l22 13c5 3 10 4 15 4c15 0 28 -11 28 -28v-50c0 -10 -6 -19 -14 -24l-51 -32v-134c0 -12 -11 -22 -23 -22z" fill="currentColor"/>
</g>
<g transform="translate(111.3173, 20.5351)">
<polygon stroke-linejoin="round" stroke-linecap="round" stroke-width="0.1125" fill="currentColor" stroke="currentColor" points="0 0.2500 1.0000 0.2000 1.0000 -0.3000 0 -0.2500"/>
</g>
<g transform="translate(111.2920, 16.6413)">
<rect x="-0.0253" y="-2.7822" width="0.0507" height="6.5322" ry="0.0253" fill="currentColor"/>
</g>
<g transform="translate(111.2667, 26.1546)">
<path stroke-width="0.1000" stroke-linejoin="round" stroke-linecap="round" stroke="currentColor" fill="currentColor" d="m0 -0.2500L1.3125 -0.7500L1.3125 0.2500L0 0.7500"/>
</g>
<g transform="translate(111.2667, 13.6413)">
<path stroke-width="0.1000" stroke-linejoin="round" stroke-linecap="round" stroke="currentColor" fill="currentColor" d="m0 -0.2500L1.3125 -0.7500L1.3125 0.2500L0 0.7500"/>
</g>
<g transform="translate(91.7095, 25.1546)">
<rect x="-0.0253" y="-0.7822" width="0.0507" height="3.2822" ry="0.0253" fill="currentColor"/>
</g>
<g transform="translate(90.2341, 17.6413)">
<path transform="scale(0.0040, -0.0040)" d="M0 114c0 12 7 22 18 26l37 15v151c0 12 10 22 22 22s22 -10 22 -22v-134l77 29v152c0 12 10 22 22 22s22 -10 22 -22v-134l16 6c3 1 8 2 11 2c15 0 28 -12 28 -28v-50c0 -12 -7 -23 -18 -27l-37 -14v-152l16 7c3 1 8 2 11 2c15 0 28 -13 28 -29v-50c0 -12 -7 -22 -18 -26
l-37 -15v-151c0 -12 -10 -22 -22 -22s-22 10 -22 22v134l-77 -29v-152c0 -12 -10 -22 -22 -22s-22 10 -22 22v134l-16 -6c-3 -1 -8 -2 -11 -2c-15 0 -28 12 -28 28v50c0 12 7 23 18 27l37 14v152l-16 -7c-3 -1 -8 -2 -11 -2c-15 0 -28 13 -28 29v50zM176 91l-77 -30v-152
l77 30v152z" fill="currentColor"/>
</g>
<g transform="translate(92.9713, 16.6413)">
<rect x="-0.0253" y="-1.8242" width="0.0507" height="2.6065" ry="0.0253" fill="currentColor"/>
</g>
<g transform="translate(91.6841, 24.1546)">
<path stroke-width="0.1000" stroke-linejoin="round" stroke-linecap="round" stroke="currentColor" fill="currentColor" d="m0 -0.2500L1.3125 -0.7500L1.3125 0.2500L0 0.7500"/>
</g>
<g transform="translate(91.6841, 17.6413)">
<path stroke-width="0.1000" stroke-linejoin="round" stroke-linecap="round" stroke="currentColor" fill="currentColor" d="m0 -0.2500L1.3125 -0.7500L1.3125 0.2500L0 0.7500"/>
</g>
<g transform="translate(86.0515, 9.4298)">
<path transform="scale(0.0057, -0.0057)" d="M170 259c-51 0 -53 -43 -53 -100v-18v-18c0 -57 2 -100 53 -100c57 0 61 51 61 118s-4 118 -61 118zM117 266c15 10 33 16 53 16c101 0 170 -46 170 -141s-69 -141 -170 -141c-112 0 -170 124 -170 250c0 128 72 250 190 250c70 0 136 -39 136 -103
c0 -36 -29 -66 -65 -66s-66 30 -66 66c0 24 40 25 40 49c0 20 -23 31 -45 31c-66 0 -75 -65 -75 -139c0 -24 2 -48 2 -72z" fill="currentColor"/>
</g>
<g transform="translate(82.1159, 25.1546)">
<path transform="scale(0.0040, -0.0040)" d="M135 -19v107l-73 48l-62 -36l40 50l65 38l95 -63v-106z" fill="currentColor"/>
</g>
<g transform="translate(82.1159, 16.6413)">
<path transform="scale(0.0040, -0.0040)" d="M135 -19v107l-73 48l-62 -36l40 50l65 38l95 -63v-106z" fill="currentColor"/>
</g>
<g transform="translate(96.5798, 25.1546)">
<path transform="scale(0.0040, -0.0040)" d="M135 -19v107l-73 48l-62 -36l40 50l65 38l95 -63v-106z" fill="currentColor"/>
</g>
<g transform="translate(101.4754, 26.1546)">
<path stroke-width="0.1000" stroke-linejoin="round" stroke-linecap="round" stroke="currentColor" fill="currentColor" d="m0 -0.2500L1.3125 -0.7500L1.3125 0.2500L0 0.7500"/>
</g>
<g transform="translate(101.4754, 17.1413)">
<path stroke-width="0.1000" stroke-linejoin="round" stroke-linecap="round" stroke="currentColor" fill="currentColor" d="m0 -0.2500L1.3125 -0.7500L1.3125 0.2500L0 0.7500"/>
</g>
<g transform="translate(95.1298, 18.1413)">
<path transform="scale(0.0040, -0.0040)" d="M0 114c0 12 7 22 18 26l37 15v151c0 12 10 22 22 22s22 -10 22 -22v-134l77 29v152c0 12 10 22 22 22s22 -10 22 -22v-134l16 6c3 1 8 2 11 2c15 0 28 -12 28 -28v-50c0 -12 -7 -23 -18 -27l-37 -14v-152l16 7c3 1 8 2 11 2c15 0 28 -13 28 -29v-50c0 -12 -7 -22 -18 -26
l-37 -15v-151c0 -12 -10 -22 -22 -22s-22 10 -22 22v134l-77 -29v-152c0 -12 -10 -22 -22 -22s-22 10 -22 22v134l-16 -6c-3 -1 -8 -2 -11 -2c-15 0 -28 12 -28 28v50c0 12 7 23 18 27l37 14v152l-16 -7c-3 -1 -8 -2 -11 -2c-15 0 -28 13 -28 29v50zM176 91l-77 -30v-152
l77 30v152z" fill="currentColor"/>
</g>
<g transform="translate(97.8669, 16.6413)">
<rect x="-0.0253" y="-2.0000" width="0.0507" height="3.2822" ry="0.0253" fill="currentColor"/>
</g>
<g transform="translate(102.7626, 16.6413)">
<rect x="-0.0253" y="-2.1758" width="0.0507" height="2.4580" ry="0.0253" fill="currentColor"/>
</g>
<g transform="translate(96.5798, 18.1413)">
<path stroke-width="0.1000" stroke-linejoin="round" stroke-linecap="round" stroke="currentColor" fill="currentColor" d="m0 -0.2500L1.3125 -0.7500L1.3125 0.2500L0 0.7500"/>
</g>
<g transform="translate(90.2341, 24.1546)">
<path transform="scale(0.0040, -0.0040)" d="M0 114c0 12 7 22 18 26l37 15v151c0 12 10 22 22 22s22 -10 22 -22v-134l77 29v152c0 12 10 22 22 22s22 -10 22 -22v-134l16 6c3 1 8 2 11 2c15 0 28 -12 28 -28v-50c0 -12 -7 -23 -18 -27l-37 -14v-152l16 7c3 1 8 2 11 2c15 0 28 -13 28 -29v-50c0 -12 -7 -22 -18 -26
l-37 -15v-151c0 -12 -10 -22 -22 -22s-22 10 -22 22v134l-77 -29v-152c0 -12 -10 -22 -22 -22s-22 10 -22 22v134l-16 -6c-3 -1 -8 -2 -11 -2c-15 0 -28 12 -28 28v50c0 12 7 23 18 27l37 14v152l-16 -7c-3 -1 -8 -2 -11 -2c-15 0 -28 13 -28 29v50zM176 91l-77 -30v-152
l77 30v152z" fill="currentColor"/>
</g>
<g transform="translate(91.7348, 27.7984)">
<polygon stroke-linejoin="round" stroke-linecap="round" stroke-width="0.1125" fill="currentColor" stroke="currentColor" points="0 0.2500 1.0000 0.2000 1.0000 -0.3000 0 -0.2500"/>
</g>
<g transform="translate(138.9675, 27.1546)">
<path transform="scale(0.0040, -0.0040)" d="M0 114c0 12 7 22 18 26l37 15v151c0 12 10 22 22 22s22 -10 22 -22v-134l77 29v152c0 12 10 22 22 22s22 -10 22 -22v-134l16 6c3 1 8 2 11 2c15 0 28 -12 28 -28v-50c0 -12 -7 -23 -18 -27l-37 -14v-152l16 7c3 1 8 2 11 2c15 0 28 -13 28 -29v-50c0 -12 -7 -22 -18 -26
l-37 -15v-151c0 -12 -10 -22 -22 -22s-22 10 -22 22v134l-77 -29v-152c0 -12 -10 -22 -22 -22s-22 10 -22 22v134l-16 -6c-3 -1 -8 -2 -11 -2c-15 0 -28 12 -28 28v50c0 12 7 23 18 27l37 14v152l-16 -7c-3 -1 -8 -2 -11 -2c-15 0 -28 13 -28 29v50zM176 91l-77 -30v-152
l77 30v152z" fill="currentColor"/>
</g>
<g transform="translate(144.2738, 26.6546)">
<path transform="scale(0.0040, -0.0040)" d="M-8 375c8 5 18 7 27 7s20 -2 28 -7l-3 -196l99 24h4c11 0 20 -8 20 -19l8 -559c-8 -5 -19 -7 -28 -7s-19 2 -27 7l3 196l-99 -24h-5c-11 0 -19 8 -19 19zM127 109l-85 -20l-2 -198l84 20z" fill="currentColor"/>
</g>
<g transform="translate(146.6256, 23.4109)">
<polygon stroke-linejoin="round" stroke-linecap="round" stroke-width="0.1125" fill="currentColor" stroke="currentColor" points="0 0.2500 1.0000 0.2000 1.0000 -0.3000 0 -0.2500"/>
</g>
<g transform="translate(146.6003, 25.1546)">
<rect x="-0.0253" y="-2.0000" width="0.0507" height="3.2822" ry="0.0253" fill="currentColor"/>
</g>
<g transform="translate(145.3131, 26.6546)">
<path stroke-width="0.1000" stroke-linejoin="round" stroke-linecap="round" stroke="currentColor" fill="currentColor" d="m0 -0.2500L1.3125 -0.7500L1.3125 0.2500L0 0.7500"/>
</g>
<g transform="translate(145.3131, 16.6413)">
<path transform="scale(0.0040, -0.0040)" d="M135 -19v107l-73 48l-62 -36l40 50l65 38l95 -63v-106z" fill="currentColor"/>
</g>
<g transform="translate(150.2087, 17.6413)">
<path stroke-width="0.1000" stroke-linejoin="round" stroke-linecap="round" stroke="currentColor" fill="currentColor" d="m0 -0.2500L1.3125 -0.7500L1.3125 0.2500L0 0.7500"/>
</g>
<g transform="translate(141.7300, 23.9109)">
<polygon stroke-linejoin="round" stroke-linecap="round" stroke-width="0.1125" fill="currentColor" stroke="currentColor" points="0 0.2500 1.0000 0.2000 1.0000 -0.3000 0 -0.2500"/>
</g>
<g transform="translate(141.7046, 25.1546)">
<rect x="-0.0253" y="-1.5000" width="0.0507" height="3.2822" ry="0.0253" fill="currentColor"/>
</g>
<g transform="translate(140.4175, 27.1546)">
<path stroke-width="0.1000" stroke-linejoin="round" stroke-linecap="round" stroke="currentColor" fill="currentColor" d="m0 -0.2500L1.3125 -0.7500L1.3125 0.2500L0 0.7500"/>
</g>
<g transform="translate(140.4175, 16.6413)">
<path transform="scale(0.0040, -0.0040)" d="M135 -19v107l-73 48l-62 -36l40 50l65 38l95 -63v-106z" fill="currentColor"/>
</g>
<g transform="translate(134.0718, 27.6546)">
<path transform="scale(0.0040, -0.0040)" d="M0 114c0 12 7 22 18 26l37 15v151c0 12 10 22 22 22s22 -10 22 -22v-134l77 29v152c0 12 10 22 22 22s22 -10 22 -22v-134l16 6c3 1 8 2 11 2c15 0 28 -12 28 -28v-50c0 -12 -7 -23 -18 -27l-37 -14v-152l16 7c3 1 8 2 11 2c15 0 28 -13 28 -29v-50c0 -12 -7 -22 -18 -26
l-37 -15v-151c0 -12 -10 -22 -22 -22s-22 10 -22 22v134l-77 -29v-152c0 -12 -10 -22 -22 -22s-22 10 -22 22v134l-16 -6c-3 -1 -8 -2 -11 -2c-15 0 -28 12 -28 28v50c0 12 7 23 18 27l37 14v152l-16 -7c-3 -1 -8 -2 -11 -2c-15 0 -28 13 -28 29v50zM176 91l-77 -30v-152
l77 30v152z" fill="currentColor"/>
</g>
<g transform="translate(107.6329, 22.9780)">
<polygon stroke-linejoin="round" stroke-linecap="round" stroke-width="0.1125" fill="currentColor" stroke="currentColor" points="4.8901 -0.0071 4.8901 0.3604 0.0562 0.1838 0.0562 -0.1838"/>
</g>
<g transform="translate(92.9460, 14.8180)">
<polygon stroke-linejoin="round" stroke-linecap="round" stroke-width="0.1125" fill="currentColor" stroke="currentColor" points="9.7857 -0.5371 9.7857 -0.1696 0.0562 0.1838 0.0562 -0.1838"/>
</g>
<g transform="translate(151.4959, 25.1546)">
<rect x="-0.0253" y="-2.5000" width="0.0507" height="3.2822" ry="0.0253" fill="currentColor"/>
</g>
<g transform="translate(149.1587, 17.6413)">
<path transform="scale(0.0040, -0.0040)" d="M-8 375c8 5 18 7 27 7s20 -2 28 -7l-3 -196l99 24h4c11 0 20 -8 20 -19l8 -559c-8 -5 -19 -7 -28 -7s-19 2 -27 7l3 196l-99 -24h-5c-11 0 -19 8 -19 19zM127 109l-85 -20l-2 -198l84 20z" fill="currentColor"/>
</g>
<g transform="translate(150.2341, 16.6413)">
<rect x="-0.0253" y="-2.7822" width="0.0507" height="6.7822" ry="0.0253" fill="currentColor"/>
</g>
<g transform="translate(150.2087, 26.1546)">
<path stroke-width="0.1000" stroke-linejoin="round" stroke-linecap="round" stroke="currentColor" fill="currentColor" d="m0 -0.2500L1.3125 -0.7500L1.3125 0.2500L0 0.7500"/>
</g>
<g transform="translate(150.2087, 13.6413)">
<path stroke-width="0.1000" stroke-linejoin="round" stroke-linecap="round" stroke="currentColor" fill="currentColor" d="m0 -0.2500L1.3125 -0.7500L1.3125 0.2500L0 0.7500"/>
</g>
<g transform="translate(124.2806, 24.1546)">
<path transform="scale(0.0040, -0.0040)" d="M0 114c0 12 7 22 18 26l37 15v151c0 12 10 22 22 22s22 -10 22 -22v-134l77 29v152c0 12 10 22 22 22s22 -10 22 -22v-134l16 6c3 1 8 2 11 2c15 0 28 -12 28 -28v-50c0 -12 -7 -23 -18 -27l-37 -14v-152l16 7c3 1 8 2 11 2c15 0 28 -13 28 -29v-50c0 -12 -7 -22 -18 -26
l-37 -15v-151c0 -12 -10 -22 -22 -22s-22 10 -22 22v134l-77 -29v-152c0 -12 -10 -22 -22 -22s-22 10 -22 22v134l-16 -6c-3 -1 -8 -2 -11 -2c-15 0 -28 12 -28 28v50c0 12 7 23 18 27l37 14v152l-16 -7c-3 -1 -8 -2 -11 -2c-15 0 -28 13 -28 29v50zM176 91l-77 -30v-152
l77 30v152z" fill="currentColor"/>
</g>
<g transform="translate(125.7812, 27.7984)">
<polygon stroke-linejoin="round" stroke-linecap="round" stroke-width="0.1125" fill="currentColor" stroke="currentColor" points="0 0.2500 1.0000 0.2000 1.0000 -0.3000 0 -0.2500"/>
</g>
<g transform="translate(125.7559, 25.1546)">
<rect x="-0.0253" y="-0.7822" width="0.0507" height="3.2822" ry="0.0253" fill="currentColor"/>
</g>
<g transform="translate(124.2806, 17.6413)">
<path transform="scale(0.0040, -0.0040)" d="M0 114c0 12 7 22 18 26l37 15v151c0 12 10 22 22 22s22 -10 22 -22v-134l77 29v152c0 12 10 22 22 22s22 -10 22 -22v-134l16 6c3 1 8 2 11 2c15 0 28 -12 28 -28v-50c0 -12 -7 -23 -18 -27l-37 -14v-152l16 7c3 1 8 2 11 2c15 0 28 -13 28 -29v-50c0 -12 -7 -22 -18 -26
l-37 -15v-151c0 -12 -10 -22 -22 -22s-22 10 -22 22v134l-77 -29v-152c0 -12 -10 -22 -22 -22s-22 10 -22 22v134l-16 -6c-3 -1 -8 -2 -11 -2c-15 0 -28 12 -28 28v50c0 12 7 23 18 27l37 14v152l-16 -7c-3 -1 -8 -2 -11 -2c-15 0 -28 13 -28 29v50zM176 91l-77 -30v-152
l77 30v152z" fill="currentColor"/>
</g>
<g transform="translate(127.0431, 14.3975)">
<polygon stroke-linejoin="round" stroke-linecap="round" stroke-width="0.1125" fill="currentColor" stroke="currentColor" points="0 0.2500 1.0000 0.2000 1.0000 -0.3000 0 -0.2500"/>
</g>
<g transform="translate(127.0177, 16.6413)">
<rect x="-0.0253" y="-2.5000" width="0.0507" height="3.2822" ry="0.0253" fill="currentColor"/>
</g>
<g transform="translate(125.7306, 24.1546)">
<path stroke-width="0.1000" stroke-linejoin="round" stroke-linecap="round" stroke="currentColor" fill="currentColor" d="m0 -0.2500L1.3125 -0.7500L1.3125 0.2500L0 0.7500"/>
</g>
<g transform="translate(125.7306, 17.6413)">
<path stroke-width="0.1000" stroke-linejoin="round" stroke-linecap="round" stroke="currentColor" fill="currentColor" d="m0 -0.2500L1.3125 -0.7500L1.3125 0.2500L0 0.7500"/>
</g>
<g transform="translate(120.0979, 9.4213)">
<path transform="scale(0.0057, -0.0057)" d="M71 412c-34 0 -42 -42 -42 -72v-75c0 -10 -7 -15 -14 -15s-15 5 -15 15v220c0 10 8 15 15 15s14 -5 14 -15v-14c0 -9 12 -19 15 -15c20 29 52 44 85 44c28 0 56 -11 77 -32c13 -13 31 -19 48 -19c29 0 59 17 79 45c3 5 7 6 11 6c8 0 16 -6 16 -14c0 -3 -1 -6 -3 -9
c-83 -118 -161 -248 -161 -386c0 -24 3 -50 8 -75c2 -10 -6 -19 -16 -16c-23 7 -47 13 -71 13s-48 -6 -71 -13c-11 -3 -21 6 -17 16c55 130 136 246 219 360c-21 -11 -41 -17 -61 -17c-23 0 -44 8 -63 27c-16 16 -36 26 -53 26z" fill="currentColor"/>
</g>
<g transform="translate(136.8343, 24.4109)">
<polygon stroke-linejoin="round" stroke-linecap="round" stroke-width="0.1125" fill="currentColor" stroke="currentColor" points="0 0.2500 1.0000 0.2000 1.0000 -0.3000 0 -0.2500"/>
</g>
<g transform="translate(136.8090, 25.1546)">
<rect x="-0.0253" y="-1.0000" width="0.0507" height="3.2822" ry="0.0253" fill="currentColor"/>
</g>
<g transform="translate(134.0718, 17.1413)">
<path transform="scale(0.0040, -0.0040)" d="M0 114c0 12 7 22 18 26l37 15v151c0 12 10 22 22 22s22 -10 22 -22v-134l77 29v152c0 12 10 22 22 22s22 -10 22 -22v-134l16 6c3 1 8 2 11 2c15 0 28 -12 28 -28v-50c0 -12 -7 -23 -18 -27l-37 -14v-152l16 7c3 1 8 2 11 2c15 0 28 -13 28 -29v-50c0 -12 -7 -22 -18 -26
l-37 -15v-151c0 -12 -10 -22 -22 -22s-22 10 -22 22v134l-77 -29v-152c0 -12 -10 -22 -22 -22s-22 10 -22 22v134l-16 -6c-3 -1 -8 -2 -11 -2c-15 0 -28 12 -28 28v50c0 12 7 23 18 27l37 14v152l-16 -7c-3 -1 -8 -2 -11 -2c-15 0 -28 13 -28 29v50zM176 91l-77 -30v-152
l77 30v152z" fill="currentColor"/>
</g>
<g transform="translate(136.8343, 13.8975)">
<polygon stroke-linejoin="round" stroke-linecap="round" stroke-width="0.1125" fill="currentColor" stroke="currentColor" points="0 0.2500 1.0000 0.2000 1.0000 -0.3000 0 -0.2500"/>
</g>
<g transform="translate(136.8090, 16.6413)">
<rect x="-0.0253" y="-3.0000" width="0.0507" height="3.2822" ry="0.0253" fill="currentColor"/>
</g>
<g transform="translate(135.5218, 27.6546)">
<path stroke-width="0.1000" stroke-linejoin="round" stroke-linecap="round" stroke="currentColor" fill="currentColor" d="m0 -0.2500L1.3125 -0.7500L1.3125 0.2500L0 0.7500"/>
</g>
<g transform="translate(135.5218, 17.1413)">
<path stroke-width="0.1000" stroke-linejoin="round" stroke-linecap="round" stroke="currentColor" fill="currentColor" d="m0 -0.2500L1.3125 -0.7500L1.3125 0.2500L0 0.7500"/>
</g>
<g transform="translate(129.1762, 18.1413)">
<path transform="scale(0.0040, -0.0040)" d="M0 114c0 12 7 22 18 26l37 15v151c0 12 10 22 22 22s22 -10 22 -22v-134l77 29v152c0 12 10 22 22 22s22 -10 22 -22v-134l16 6c3 1 8 2 11 2c15 0 28 -12 28 -28v-50c0 -12 -7 -23 -18 -27l-37 -14v-152l16 7c3 1 8 2 11 2c15 0 28 -13 28 -29v-50c0 -12 -7 -22 -18 -26
l-37 -15v-151c0 -12 -10 -22 -22 -22s-22 10 -22 22v134l-77 -29v-152c0 -12 -10 -22 -22 -22s-22 10 -22 22v134l-16 -6c-3 -1 -8 -2 -11 -2c-15 0 -28 12 -28 28v50c0 12 7 23 18 27l37 14v152l-16 -7c-3 -1 -8 -2 -11 -2c-15 0 -28 13 -28 29v50zM176 91l-77 -30v-152
l77 30v152z" fill="currentColor"/>
</g>
<g transform="translate(131.9387, 14.8975)">
<polygon stroke-linejoin="round" stroke-linecap="round" stroke-width="0.1125" fill="currentColor" stroke="currentColor" points="0 0.2500 1.0000 0.2000 1.0000 -0.3000 0 -0.2500"/>
</g>
<g transform="translate(131.9134, 16.6413)">
<rect x="-0.0253" y="-2.0000" width="0.0507" height="3.2822" ry="0.0253" fill="currentColor"/>
</g>
<g transform="translate(130.6262, 25.1546)">
<path transform="scale(0.0040, -0.0040)" d="M135 -19v107l-73 48l-62 -36l40 50l65 38l95 -63v-106z" fill="currentColor"/>
</g>
<g transform="translate(130.6262, 18.1413)">
<path stroke-width="0.1000" stroke-linejoin="round" stroke-linecap="round" stroke="currentColor" fill="currentColor" d="m0 -0.2500L1.3125 -0.7500L1.3125 0.2500L0 0.7500"/>
</g>
<g transform="translate(22.1413, 23.6546)">
<path transform="scale(0.0040, -0.0040)" d="M-8 375c8 5 18 7 27 7s20 -2 28 -7l-3 -196l99 24h4c11 0 20 -8 20 -19l8 -559c-8 -5 -19 -7 -28 -7s-19 2 -27 7l3 196l-99 -24h-5c-11 0 -19 8 -19 19zM127 109l-85 -20l-2 -198l84 20z" fill="currentColor"/>
</g>
<g transform="translate(33.3825, 16.6413)">
<path transform="scale(0.0040, -0.0040)" d="M135 -19v107l-73 48l-62 -36l40 50l65 38l95 -63v-106z" fill="currentColor"/>
</g>
<g transform="translate(27.4476, 26.6546)">
<path transform="scale(0.0040, -0.0040)" d="M-8 375c8 5 18 7 27 7s20 -2 28 -7l-3 -196l99 24h4c11 0 20 -8 20 -19l8 -559c-8 -5 -19 -7 -28 -7s-19 2 -27 7l3 196l-99 -24h-5c-11 0 -19 8 -19 19zM127 109l-85 -20l-2 -198l84 20z" fill="currentColor"/>
</g>
<g transform="translate(29.7994, 23.4109)">
<polygon stroke-linejoin="round" stroke-linecap="round" stroke-width="0.1125" fill="currentColor" stroke="currentColor" points="0 0.2500 1.0000 0.2000 1.0000 -0.3000 0 -0.2500"/>
</g>
<g transform="translate(29.7741, 25.1546)">
<rect x="-0.0253" y="-2.0000" width="0.0507" height="3.2822" ry="0.0253" fill="currentColor"/>
</g>
<g transform="translate(28.4869, 26.6546)">
<path stroke-width="0.1000" stroke-linejoin="round" stroke-linecap="round" stroke="currentColor" fill="currentColor" d="m0 -0.2500L1.3125 -0.7500L1.3125 0.2500L0 0.7500"/>
</g>
<g transform="translate(28.4869, 16.6413)">
<path transform="scale(0.0040, -0.0040)" d="M135 -19v107l-73 48l-62 -36l40 50l65 38l95 -63v-106z" fill="currentColor"/>
</g>
<g transform="translate(33.3825, 26.1546)">
<path stroke-width="0.1000" stroke-linejoin="round" stroke-linecap="round" stroke="currentColor" fill="currentColor" d="m0 -0.2500L1.3125 -0.7500L1.3125 0.2500L0 0.7500"/>
</g>
<g transform="translate(22.1413, 27.1546)">
<path transform="scale(0.0040, -0.0040)" d="M0 114c0 12 7 22 18 26l37 15v151c0 12 10 22 22 22s22 -10 22 -22v-134l77 29v152c0 12 10 22 22 22s22 -10 22 -22v-134l16 6c3 1 8 2 11 2c15 0 28 -12 28 -28v-50c0 -12 -7 -23 -18 -27l-37 -14v-152l16 7c3 1 8 2 11 2c15 0 28 -13 28 -29v-50c0 -12 -7 -22 -18 -26
l-37 -15v-151c0 -12 -10 -22 -22 -22s-22 10 -22 22v134l-77 -29v-152c0 -12 -10 -22 -22 -22s-22 10 -22 22v134l-16 -6c-3 -1 -8 -2 -11 -2c-15 0 -28 12 -28 28v50c0 12 7 23 18 27l37 14v152l-16 -7c-3 -1 -8 -2 -11 -2c-15 0 -28 13 -28 29v50zM176 91l-77 -30v-152
l77 30v152z" fill="currentColor"/>
</g>
<g transform="translate(24.9038, 20.9109)">
<polygon stroke-linejoin="round" stroke-linecap="round" stroke-width="0.1125" fill="currentColor" stroke="currentColor" points="0 0.2500 1.0000 0.2000 1.0000 -0.3000 0 -0.2500"/>
</g>
<g transform="translate(24.8784, 25.1546)">
<rect x="-0.0253" y="-4.5000" width="0.0507" height="6.2822" ry="0.0253" fill="currentColor"/>
</g>
<g transform="translate(22.1413, 17.1413)">
<path transform="scale(0.0040, -0.0040)" d="M0 114c0 12 7 22 18 26l37 15v151c0 12 10 22 22 22s22 -10 22 -22v-134l77 29v152c0 12 10 22 22 22s22 -10 22 -22v-134l16 6c3 1 8 2 11 2c15 0 28 -12 28 -28v-50c0 -12 -7 -23 -18 -27l-37 -14v-152l16 7c3 1 8 2 11 2c15 0 28 -13 28 -29v-50c0 -12 -7 -22 -18 -26
l-37 -15v-151c0 -12 -10 -22 -22 -22s-22 10 -22 22v134l-77 -29v-152c0 -12 -10 -22 -22 -22s-22 10 -22 22v134l-16 -6c-3 -1 -8 -2 -11 -2c-15 0 -28 12 -28 28v50c0 12 7 23 18 27l37 14v152l-16 -7c-3 -1 -8 -2 -11 -2c-15 0 -28 13 -28 29v50zM176 91l-77 -30v-152
l77 30v152z" fill="currentColor"/>
</g>
<g transform="translate(24.9038, 13.8975)">
<polygon stroke-linejoin="round" stroke-linecap="round" stroke-width="0.1125" fill="currentColor" stroke="currentColor" points="0 0.2500 1.0000 0.2000 1.0000 -0.3000 0 -0.2500"/>
</g>
<g transform="translate(43.1738, 25.1546)">
<path transform="scale(0.0040, -0.0040)" d="M135 -19v107l-73 48l-62 -36l40 50l65 38l95 -63v-106z" fill="currentColor"/>
</g>
<g transform="translate(43.1738, 16.6413)">
<path transform="scale(0.0040, -0.0040)" d="M135 -19v107l-73 48l-62 -36l40 50l65 38l95 -63v-106z" fill="currentColor"/>
</g>
<g transform="translate(39.5907, 22.4109)">
<polygon stroke-linejoin="round" stroke-linecap="round" stroke-width="0.1125" fill="currentColor" stroke="currentColor" points="0 0.2500 1.0000 0.2000 1.0000 -0.3000 0 -0.2500"/>
</g>
<g transform="translate(39.5653, 25.1546)">
<rect x="-0.0253" y="-3.0000" width="0.0507" height="3.2822" ry="0.0253" fill="currentColor"/>
</g>
<g transform="translate(37.1282, 18.6413)">
<path transform="scale(0.0040, -0.0040)" d="M33 35l-2 -60v-11c0 -21 2 -43 5 -64c42 38 87 81 87 138c0 32 -13 63 -41 63c-31 0 -48 -32 -49 -66zM32 446l-9 -337c25 26 59 40 95 40c50 0 82 -51 82 -105c0 -77 -80 -117 -137 -169c-18 -17 -26 -48 -52 -48c-16 0 -28 15 -28 32l-15 587c10 6 21 8 32 8
s22 -2 32 -8z" fill="currentColor"/>
</g>
<g transform="translate(38.3288, 21.7851)">
<polygon stroke-linejoin="round" stroke-linecap="round" stroke-width="0.1125" fill="currentColor" stroke="currentColor" points="0 0.2500 1.0000 0.2000 1.0000 -0.3000 0 -0.2500"/>
</g>
<g transform="translate(24.8784, 16.6413)">
<rect x="-0.0253" y="-3.0000" width="0.0507" height="3.2822" ry="0.0253" fill="currentColor"/>
</g>
<g transform="translate(38.3035, 16.6413)">
<rect x="-0.0253" y="-2.2822" width="0.0507" height="7.2822" ry="0.0253" fill="currentColor"/>
</g>
<g transform="translate(38.2782, 25.6546)">
<path stroke-width="0.1000" stroke-linejoin="round" stroke-linecap="round" stroke="currentColor" fill="currentColor" d="m0 -0.2500L1.3125 -0.7500L1.3125 0.2500L0 0.7500"/>
</g>
<g transform="translate(38.2782, 14.1413)">
<path stroke-width="0.1000" stroke-linejoin="round" stroke-linecap="round" stroke="currentColor" fill="currentColor" d="m0 -0.2500L1.3125 -0.7500L1.3125 0.2500L0 0.7500"/>
</g>
<g transform="translate(38.2782, 18.6413)">
<path stroke-width="0.1000" stroke-linejoin="round" stroke-linecap="round" stroke="currentColor" fill="currentColor" d="m0 -0.2500L1.3125 -0.7500L1.3125 0.2500L0 0.7500"/>
</g>
<g transform="translate(34.6950, 22.9109)">
<polygon stroke-linejoin="round" stroke-linecap="round" stroke-width="0.1125" fill="currentColor" stroke="currentColor" points="0 0.2500 1.0000 0.2000 1.0000 -0.3000 0 -0.2500"/>
</g>
<g transform="translate(34.6697, 25.1546)">
<rect x="-0.0253" y="-2.5000" width="0.0507" height="3.2822" ry="0.0253" fill="currentColor"/>
</g>
<g transform="translate(8.8000, 24.1546)">
<path transform="scale(0.0040, -0.0040)" d="M559 -125c0 27 22 50 49 50s50 -23 50 -50s-23 -50 -50 -50s-49 23 -49 50zM559 125c0 27 22 50 49 50s50 -23 50 -50s-23 -50 -50 -50s-49 23 -49 50zM230 266c173 0 295 -89 295 -254c0 -263 -262 -414 -514 -523c-3 -3 -7 -5 -11 -5c-9 0 -16 7 -16 16c0 4 2 8 5 11
c199 117 405 264 405 490c0 118 -58 233 -164 233c-67 0 -113 -50 -135 -117c6 1 11 2 17 2c55 0 100 -45 100 -100c0 -58 -44 -107 -100 -107c-60 0 -112 48 -112 107c0 133 100 247 230 247z" fill="currentColor"/>
</g>
<g transform="translate(15.0872, 16.6413)">
<rect x="-0.0253" y="-2.5000" width="0.0507" height="3.2822" ry="0.0253" fill="currentColor"/>
</g>
<g transform="translate(13.8000, 24.1546)">
<path stroke-width="0.1000" stroke-linejoin="round" stroke-linecap="round" stroke="currentColor" fill="currentColor" d="m0 -0.2500L1.3125 -0.7500L1.3125 0.2500L0 0.7500"/>
</g>
<g transform="translate(13.8000, 17.6413)">
<path stroke-width="0.1000" stroke-linejoin="round" stroke-linecap="round" stroke="currentColor" fill="currentColor" d="m0 -0.2500L1.3125 -0.7500L1.3125 0.2500L0 0.7500"/>
</g>
<g transform="translate(6.0800, 13.5739)">
<text font-family="serif" font-size="1.7461" text-anchor="start" fill="currentColor">
<tspan>38</tspan>
</text>
</g>
<g transform="translate(8.8000, 17.6413)">
<path transform="scale(0.0040, -0.0040)" d="M381 266h9c157 0 258 -130 258 -264c0 -77 -33 -156 -108 -212c-22 -16 -46 -28 -71 -36c2 -32 3 -65 3 -97c0 -21 -1 -43 -2 -64c-7 -122 -91 -230 -211 -230c-108 0 -197 88 -197 197c0 58 54 104 113 104c54 0 95 -48 95 -104c0 -52 -43 -95 -95 -95c-8 0 -16 2 -24 4
c25 -35 65 -59 111 -59c95 0 155 92 161 190c1 20 2 39 2 59c0 28 -1 55 -3 83c-29 -5 -57 -7 -87 -7c-189 0 -333 174 -333 377c0 176 128 307 242 443c-21 62 -41 124 -50 189c-7 52 -8 106 -8 159c0 113 54 219 146 286c8 6 21 7 29 0c72 -82 136 -244 136 -357
c0 -141 -83 -253 -174 -362c22 -67 41 -135 58 -204zM464 -200c64 25 108 93 108 159c0 87 -62 173 -163 187c24 -113 43 -225 55 -346zM338 -218c27 0 54 2 80 6c-13 125 -33 242 -58 359c-79 -7 -123 -59 -123 -116c0 -43 24 -89 78 -120c5 -5 8 -11 8 -17
c0 -13 -11 -24 -24 -24c-3 0 -7 0 -10 2c-81 44 -119 116 -119 187c0 90 60 178 164 201c-14 56 -30 112 -47 167c-104 -122 -208 -245 -208 -404c0 -132 127 -241 259 -241zM239 782c0 -69 22 -127 41 -183c77 97 140 199 140 323c0 49 -3 69 -19 113
c-99 -45 -162 -145 -162 -253z" fill="currentColor"/>
</g>
<g transform="translate(10.5400, 9.4213)">
<path transform="scale(0.0057, -0.0057)" d="M71 412c-34 0 -42 -42 -42 -72v-75c0 -10 -7 -15 -14 -15s-15 5 -15 15v220c0 10 8 15 15 15s14 -5 14 -15v-14c0 -9 12 -19 15 -15c20 29 52 44 85 44c28 0 56 -11 77 -32c13 -13 31 -19 48 -19c29 0 59 17 79 45c3 5 7 6 11 6c8 0 16 -6 16 -14c0 -3 -1 -6 -3 -9
c-83 -118 -161 -248 -161 -386c0 -24 3 -50 8 -75c2 -10 -6 -19 -16 -16c-23 7 -47 13 -71 13s-48 -6 -71 -13c-11 -3 -21 6 -17 16c55 130 136 246 219 360c-21 -11 -41 -17 -61 -17c-23 0 -44 8 -63 27c-16 16 -36 26 -53 26z" fill="currentColor"/>
</g>
<g transform="translate(7.8973, 20.8980)">
<rect x="0.0000" y="-6.3200" width="0.2027" height="12.6400" ry="0.0633" fill="currentColor"/>
</g>
<g transform="translate(7.5973, 20.8980)">
<path transform="scale(0.0040, -0.0040)" d="M-186 -1104c0 258 105 510 105 753c0 129 -30 252 -126 345c-3 3 -3 3 -3 6s0 3 3 6c96 93 126 216 126 345c0 243 -105 495 -105 753c0 183 45 354 174 483c15 15 39 -9 24 -24c-96 -96 -126 -213 -126 -345c0 -237 96 -486 96 -738c0 -180 -45 -351 -168 -480
c123 -129 168 -300 168 -480c0 -252 -96 -501 -96 -738c0 -132 30 -249 126 -345c15 -15 -9 -39 -24 -24c-129 129 -174 300 -174 483z" fill="currentColor"/>
</g>
<g transform="translate(18.6956, 25.1546)">
<path transform="scale(0.0040, -0.0040)" d="M135 -19v107l-73 48l-62 -36l40 50l65 38l95 -63v-106z" fill="currentColor"/>
</g>
<g transform="translate(23.5913, 23.6546)">
<path stroke-width="0.1000" stroke-linejoin="round" stroke-linecap="round" stroke="currentColor" fill="currentColor" d="m0 -0.2500L1.3125 -0.7500L1.3125 0.2500L0 0.7500"/>
</g>
<g transform="translate(23.5913, 27.1546)">
<path stroke-width="0.1000" stroke-linejoin="round" stroke-linecap="round" stroke="currentColor" fill="currentColor" d="m0 -0.2500L1.3125 -0.7500L1.3125 0.2500L0 0.7500"/>
</g>
<g transform="translate(23.5913, 17.1413)">
<path stroke-width="0.1000" stroke-linejoin="round" stroke-linecap="round" stroke="currentColor" fill="currentColor" d="m0 -0.2500L1.3125 -0.7500L1.3125 0.2500L0 0.7500"/>
</g>
<g transform="translate(17.2456, 18.1413)">
<path transform="scale(0.0040, -0.0040)" d="M0 114c0 12 7 22 18 26l37 15v151c0 12 10 22 22 22s22 -10 22 -22v-134l77 29v152c0 12 10 22 22 22s22 -10 22 -22v-134l16 6c3 1 8 2 11 2c15 0 28 -12 28 -28v-50c0 -12 -7 -23 -18 -27l-37 -14v-152l16 7c3 1 8 2 11 2c15 0 28 -13 28 -29v-50c0 -12 -7 -22 -18 -26
l-37 -15v-151c0 -12 -10 -22 -22 -22s-22 10 -22 22v134l-77 -29v-152c0 -12 -10 -22 -22 -22s-22 10 -22 22v134l-16 -6c-3 -1 -8 -2 -11 -2c-15 0 -28 12 -28 28v50c0 12 7 23 18 27l37 14v152l-16 -7c-3 -1 -8 -2 -11 -2c-15 0 -28 13 -28 29v50zM176 91l-77 -30v-152
l77 30v152z" fill="currentColor"/>
</g>
<g transform="translate(20.0081, 14.8975)">
<polygon stroke-linejoin="round" stroke-linecap="round" stroke-width="0.1125" fill="currentColor" stroke="currentColor" points="0 0.2500 1.0000 0.2000 1.0000 -0.3000 0 -0.2500"/>
</g>
<g transform="translate(19.9828, 16.6413)">
<rect x="-0.0253" y="-2.0000" width="0.0507" height="3.2822" ry="0.0253" fill="currentColor"/>
</g>
<g transform="translate(18.6956, 18.1413)">
<path stroke-width="0.1000" stroke-linejoin="round" stroke-linecap="round" stroke="currentColor" fill="currentColor" d="m0 -0.2500L1.3125 -0.7500L1.3125 0.2500L0 0.7500"/>
</g>
<g transform="translate(12.3500, 24.1546)">
<path transform="scale(0.0040, -0.0040)" d="M0 114c0 12 7 22 18 26l37 15v151c0 12 10 22 22 22s22 -10 22 -22v-134l77 29v152c0 12 10 22 22 22s22 -10 22 -22v-134l16 6c3 1 8 2 11 2c15 0 28 -12 28 -28v-50c0 -12 -7 -23 -18 -27l-37 -14v-152l16 7c3 1 8 2 11 2c15 0 28 -13 28 -29v-50c0 -12 -7 -22 -18 -26
l-37 -15v-151c0 -12 -10 -22 -22 -22s-22 10 -22 22v134l-77 -29v-152c0 -12 -10 -22 -22 -22s-22 10 -22 22v134l-16 -6c-3 -1 -8 -2 -11 -2c-15 0 -28 12 -28 28v50c0 12 7 23 18 27l37 14v152l-16 -7c-3 -1 -8 -2 -11 -2c-15 0 -28 13 -28 29v50zM176 91l-77 -30v-152
l77 30v152z" fill="currentColor"/>
</g>
<g transform="translate(13.8507, 27.7984)">
<polygon stroke-linejoin="round" stroke-linecap="round" stroke-width="0.1125" fill="currentColor" stroke="currentColor" points="0 0.2500 1.0000 0.2000 1.0000 -0.3000 0 -0.2500"/>
</g>
<g transform="translate(13.8253, 25.1546)">
<rect x="-0.0253" y="-0.7822" width="0.0507" height="3.2822" ry="0.0253" fill="currentColor"/>
</g>
<g transform="translate(12.3500, 17.6413)">
<path transform="scale(0.0040, -0.0040)" d="M0 114c0 12 7 22 18 26l37 15v151c0 12 10 22 22 22s22 -10 22 -22v-134l77 29v152c0 12 10 22 22 22s22 -10 22 -22v-134l16 6c3 1 8 2 11 2c15 0 28 -12 28 -28v-50c0 -12 -7 -23 -18 -27l-37 -14v-152l16 7c3 1 8 2 11 2c15 0 28 -13 28 -29v-50c0 -12 -7 -22 -18 -26
l-37 -15v-151c0 -12 -10 -22 -22 -22s-22 10 -22 22v134l-77 -29v-152c0 -12 -10 -22 -22 -22s-22 10 -22 22v134l-16 -6c-3 -1 -8 -2 -11 -2c-15 0 -28 12 -28 28v50c0 12 7 23 18 27l37 14v152l-16 -7c-3 -1 -8 -2 -11 -2c-15 0 -28 13 -28 29v50zM176 91l-77 -30v-152
l77 30v152z" fill="currentColor"/>
</g>
<g transform="translate(15.1125, 14.3975)">
<polygon stroke-linejoin="round" stroke-linecap="round" stroke-width="0.1125" fill="currentColor" stroke="currentColor" points="0 0.2500 1.0000 0.2000 1.0000 -0.3000 0 -0.2500"/>
</g>
<g transform="translate(68.7161, 25.1546)">
<rect x="-0.0253" y="-2.0000" width="0.0507" height="3.2822" ry="0.0253" fill="currentColor"/>
</g>
<g transform="translate(67.4290, 26.6546)">
<path stroke-width="0.1000" stroke-linejoin="round" stroke-linecap="round" stroke="currentColor" fill="currentColor" d="m0 -0.2500L1.3125 -0.7500L1.3125 0.2500L0 0.7500"/>
</g>
<g transform="translate(67.4290, 16.6413)">
<path transform="scale(0.0040, -0.0040)" d="M135 -19v107l-73 48l-62 -36l40 50l65 38l95 -63v-106z" fill="currentColor"/>
</g>
<g transform="translate(61.4941, 27.1546)">
<path transform="scale(0.0040, -0.0040)" d="M-8 375c8 5 18 7 27 7s20 -2 28 -7l-3 -196l99 24h4c11 0 20 -8 20 -19l8 -559c-8 -5 -19 -7 -28 -7s-19 2 -27 7l3 196l-99 -24h-5c-11 0 -19 8 -19 19zM127 109l-85 -20l-2 -198l84 20z" fill="currentColor"/>
</g>
<g transform="translate(63.8458, 23.9109)">
<polygon stroke-linejoin="round" stroke-linecap="round" stroke-width="0.1125" fill="currentColor" stroke="currentColor" points="0 0.2500 1.0000 0.2000 1.0000 -0.3000 0 -0.2500"/>
</g>
<g transform="translate(63.8205, 25.1546)">
<rect x="-0.0253" y="-1.5000" width="0.0507" height="3.2822" ry="0.0253" fill="currentColor"/>
</g>
<g transform="translate(61.4941, 17.1413)">
<path transform="scale(0.0040, -0.0040)" d="M-8 375c8 5 18 7 27 7s20 -2 28 -7l-3 -196l99 24h4c11 0 20 -8 20 -19l8 -559c-8 -5 -19 -7 -28 -7s-19 2 -27 7l3 196l-99 -24h-5c-11 0 -19 8 -19 19zM127 109l-85 -20l-2 -198l84 20z" fill="currentColor"/>
</g>
<g transform="translate(63.8458, 13.8975)">
<polygon stroke-linejoin="round" stroke-linecap="round" stroke-width="0.1125" fill="currentColor" stroke="currentColor" points="0 0.2500 1.0000 0.2000 1.0000 -0.3000 0 -0.2500"/>
</g>
<g transform="translate(63.8205, 16.6413)">
<rect x="-0.0253" y="-3.0000" width="0.0507" height="3.2822" ry="0.0253" fill="currentColor"/>
</g>
<g transform="translate(62.5333, 17.1413)">
<path stroke-width="0.1000" stroke-linejoin="round" stroke-linecap="round" stroke="currentColor" fill="currentColor" d="m0 -0.2500L1.3125 -0.7500L1.3125 0.2500L0 0.7500"/>
</g>
<g transform="translate(78.5327, 22.4109)">
<polygon stroke-linejoin="round" stroke-linecap="round" stroke-width="0.1125" fill="currentColor" stroke="currentColor" points="0 0.2500 1.0000 0.2000 1.0000 -0.3000 0 -0.2500"/>
</g>
<g transform="translate(78.5074, 25.1546)">
<rect x="-0.0253" y="-3.0000" width="0.0507" height="3.2822" ry="0.0253" fill="currentColor"/>
</g>
<g transform="translate(75.7702, 13.6413)">
<path transform="scale(0.0040, -0.0040)" d="M0 114c0 12 7 22 18 26l37 15v151c0 12 10 22 22 22s22 -10 22 -22v-134l77 29v152c0 12 10 22 22 22s22 -10 22 -22v-134l16 6c3 1 8 2 11 2c15 0 28 -12 28 -28v-50c0 -12 -7 -23 -18 -27l-37 -14v-152l16 7c3 1 8 2 11 2c15 0 28 -13 28 -29v-50c0 -12 -7 -22 -18 -26
l-37 -15v-151c0 -12 -10 -22 -22 -22s-22 10 -22 22v134l-77 -29v-152c0 -12 -10 -22 -22 -22s-22 10 -22 22v134l-16 -6c-3 -1 -8 -2 -11 -2c-15 0 -28 12 -28 28v50c0 12 7 23 18 27l37 14v152l-16 -7c-3 -1 -8 -2 -11 -2c-15 0 -28 13 -28 29v50zM176 91l-77 -30v-152
l77 30v152z" fill="currentColor"/>
</g>
<g transform="translate(75.7702, 17.1413)">
<path transform="scale(0.0040, -0.0040)" d="M0 114c0 12 7 22 18 26l37 15v151c0 12 10 22 22 22s22 -10 22 -22v-134l77 29v152c0 12 10 22 22 22s22 -10 22 -22v-134l16 6c3 1 8 2 11 2c15 0 28 -12 28 -28v-50c0 -12 -7 -23 -18 -27l-37 -14v-152l16 7c3 1 8 2 11 2c15 0 28 -13 28 -29v-50c0 -12 -7 -22 -18 -26
l-37 -15v-151c0 -12 -10 -22 -22 -22s-22 10 -22 22v134l-77 -29v-152c0 -12 -10 -22 -22 -22s-22 10 -22 22v134l-16 -6c-3 -1 -8 -2 -11 -2c-15 0 -28 12 -28 28v50c0 12 7 23 18 27l37 14v152l-16 -7c-3 -1 -8 -2 -11 -2c-15 0 -28 13 -28 29v50zM176 91l-77 -30v-152
l77 30v152z" fill="currentColor"/>
</g>
<g transform="translate(77.2709, 20.5351)">
<polygon stroke-linejoin="round" stroke-linecap="round" stroke-width="0.1125" fill="currentColor" stroke="currentColor" points="0 0.2500 1.0000 0.2000 1.0000 -0.3000 0 -0.2500"/>
</g>
<g transform="translate(77.2456, 16.6413)">
<rect x="-0.0253" y="-2.7822" width="0.0507" height="6.5322" ry="0.0253" fill="currentColor"/>
</g>
<g transform="translate(77.2202, 25.6546)">
<path stroke-width="0.1000" stroke-linejoin="round" stroke-linecap="round" stroke="currentColor" fill="currentColor" d="m0 -0.2500L1.3125 -0.7500L1.3125 0.2500L0 0.7500"/>
</g>
<g transform="translate(77.2202, 13.6413)">
<path stroke-width="0.1000" stroke-linejoin="round" stroke-linecap="round" stroke="currentColor" fill="currentColor" d="m0 -0.2500L1.3125 -0.7500L1.3125 0.2500L0 0.7500"/>
</g>
<g transform="translate(77.2202, 17.1413)">
<path stroke-width="0.1000" stroke-linejoin="round" stroke-linecap="round" stroke="currentColor" fill="currentColor" d="m0 -0.2500L1.3125 -0.7500L1.3125 0.2500L0 0.7500"/>
</g>
<g transform="translate(62.5333, 27.1546)">
<path stroke-width="0.1000" stroke-linejoin="round" stroke-linecap="round" stroke="currentColor" fill="currentColor" d="m0 -0.2500L1.3125 -0.7500L1.3125 0.2500L0 0.7500"/>
</g>
<g transform="translate(73.6371, 22.9109)">
<polygon stroke-linejoin="round" stroke-linecap="round" stroke-width="0.1125" fill="currentColor" stroke="currentColor" points="0 0.2500 1.0000 0.2000 1.0000 -0.3000 0 -0.2500"/>
</g>
<g transform="translate(73.6118, 25.1546)">
<rect x="-0.0253" y="-2.5000" width="0.0507" height="3.2822" ry="0.0253" fill="currentColor"/>
</g>
<g transform="translate(72.3246, 26.1546)">
<path stroke-width="0.1000" stroke-linejoin="round" stroke-linecap="round" stroke="currentColor" fill="currentColor" d="m0 -0.2500L1.3125 -0.7500L1.3125 0.2500L0 0.7500"/>
</g>
<g transform="translate(72.3246, 16.6413)">
<path transform="scale(0.0040, -0.0040)" d="M135 -19v107l-73 48l-62 -36l40 50l65 38l95 -63v-106z" fill="currentColor"/>
</g>
<g transform="translate(68.7415, 23.4109)">
<polygon stroke-linejoin="round" stroke-linecap="round" stroke-width="0.1125" fill="currentColor" stroke="currentColor" points="0 0.2500 1.0000 0.2000 1.0000 -0.3000 0 -0.2500"/>
</g>
<g transform="translate(54.0292, 16.6413)">
<rect x="-0.0253" y="-2.5000" width="0.0507" height="3.2822" ry="0.0253" fill="currentColor"/>
</g>
<g transform="translate(52.7927, 27.7984)">
<polygon stroke-linejoin="round" stroke-linecap="round" stroke-width="0.1125" fill="currentColor" stroke="currentColor" points="0 0.2500 1.0000 0.2000 1.0000 -0.3000 0 -0.2500"/>
</g>
<g transform="translate(52.7674, 25.1546)">
<rect x="-0.0253" y="-0.7822" width="0.0507" height="3.2822" ry="0.0253" fill="currentColor"/>
</g>
<g transform="translate(56.1877, 18.1413)">
<path transform="scale(0.0040, -0.0040)" d="M0 114c0 12 7 22 18 26l37 15v151c0 12 10 22 22 22s22 -10 22 -22v-134l77 29v152c0 12 10 22 22 22s22 -10 22 -22v-134l16 6c3 1 8 2 11 2c15 0 28 -12 28 -28v-50c0 -12 -7 -23 -18 -27l-37 -14v-152l16 7c3 1 8 2 11 2c15 0 28 -13 28 -29v-50c0 -12 -7 -22 -18 -26
l-37 -15v-151c0 -12 -10 -22 -22 -22s-22 10 -22 22v134l-77 -29v-152c0 -12 -10 -22 -22 -22s-22 10 -22 22v134l-16 -6c-3 -1 -8 -2 -11 -2c-15 0 -28 12 -28 28v50c0 12 7 23 18 27l37 14v152l-16 -7c-3 -1 -8 -2 -11 -2c-15 0 -28 13 -28 29v50zM176 91l-77 -30v-152
l77 30v152z" fill="currentColor"/>
</g>
<g transform="translate(51.2921, 17.6413)">
<path transform="scale(0.0040, -0.0040)" d="M0 114c0 12 7 22 18 26l37 15v151c0 12 10 22 22 22s22 -10 22 -22v-134l77 29v152c0 12 10 22 22 22s22 -10 22 -22v-134l16 6c3 1 8 2 11 2c15 0 28 -12 28 -28v-50c0 -12 -7 -23 -18 -27l-37 -14v-152l16 7c3 1 8 2 11 2c15 0 28 -13 28 -29v-50c0 -12 -7 -22 -18 -26
l-37 -15v-151c0 -12 -10 -22 -22 -22s-22 10 -22 22v134l-77 -29v-152c0 -12 -10 -22 -22 -22s-22 10 -22 22v134l-16 -6c-3 -1 -8 -2 -11 -2c-15 0 -28 12 -28 28v50c0 12 7 23 18 27l37 14v152l-16 -7c-3 -1 -8 -2 -11 -2c-15 0 -28 13 -28 29v50zM176 91l-77 -30v-152
l77 30v152z" fill="currentColor"/>
</g>
<g transform="translate(54.0546, 14.3975)">
<polygon stroke-linejoin="round" stroke-linecap="round" stroke-width="0.1125" fill="currentColor" stroke="currentColor" points="0 0.2500 1.0000 0.2000 1.0000 -0.3000 0 -0.2500"/>
</g>
<g transform="translate(52.7421, 24.1546)">
<path stroke-width="0.1000" stroke-linejoin="round" stroke-linecap="round" stroke="currentColor" fill="currentColor" d="m0 -0.2500L1.3125 -0.7500L1.3125 0.2500L0 0.7500"/>
</g>
<g transform="translate(52.7421, 17.6413)">
<path stroke-width="0.1000" stroke-linejoin="round" stroke-linecap="round" stroke="currentColor" fill="currentColor" d="m0 -0.2500L1.3125 -0.7500L1.3125 0.2500L0 0.7500"/>
</g>
<g transform="translate(47.1094, 9.4213)">
<path transform="scale(0.0057, -0.0057)" d="M71 412c-34 0 -42 -42 -42 -72v-75c0 -10 -7 -15 -14 -15s-15 5 -15 15v220c0 10 8 15 15 15s14 -5 14 -15v-14c0 -9 12 -19 15 -15c20 29 52 44 85 44c28 0 56 -11 77 -32c13 -13 31 -19 48 -19c29 0 59 17 79 45c3 5 7 6 11 6c8 0 16 -6 16 -14c0 -3 -1 -6 -3 -9
c-83 -118 -161 -248 -161 -386c0 -24 3 -50 8 -75c2 -10 -6 -19 -16 -16c-23 7 -47 13 -71 13s-48 -6 -71 -13c-11 -3 -21 6 -17 16c55 130 136 246 219 360c-21 -11 -41 -17 -61 -17c-23 0 -44 8 -63 27c-16 16 -36 26 -53 26z" fill="currentColor"/>
</g>
<g transform="translate(57.6377, 18.1413)">
<path stroke-width="0.1000" stroke-linejoin="round" stroke-linecap="round" stroke="currentColor" fill="currentColor" d="m0 -0.2500L1.3125 -0.7500L1.3125 0.2500L0 0.7500"/>
</g>
<g transform="translate(58.9502, 14.8975)">
<polygon stroke-linejoin="round" stroke-linecap="round" stroke-width="0.1125" fill="currentColor" stroke="currentColor" points="0 0.2500 1.0000 0.2000 1.0000 -0.3000 0 -0.2500"/>
</g>
<g transform="translate(58.9249, 16.6413)">
<rect x="-0.0253" y="-2.0000" width="0.0507" height="3.2822" ry="0.0253" fill="currentColor"/>
</g>
<g transform="translate(57.6377, 25.1546)">
<path transform="scale(0.0040, -0.0040)" d="M135 -19v107l-73 48l-62 -36l40 50l65 38l95 -63v-106z" fill="currentColor"/>
</g>
<g transform="translate(51.2921, 24.1546)">
<path transform="scale(0.0040, -0.0040)" d="M0 114c0 12 7 22 18 26l37 15v151c0 12 10 22 22 22s22 -10 22 -22v-134l77 29v152c0 12 10 22 22 22s22 -10 22 -22v-134l16 6c3 1 8 2 11 2c15 0 28 -12 28 -28v-50c0 -12 -7 -23 -18 -27l-37 -14v-152l16 7c3 1 8 2 11 2c15 0 28 -13 28 -29v-50c0 -12 -7 -22 -18 -26
l-37 -15v-151c0 -12 -10 -22 -22 -22s-22 10 -22 22v134l-77 -29v-152c0 -12 -10 -22 -22 -22s-22 10 -22 22v134l-16 -6c-3 -1 -8 -2 -11 -2c-15 0 -28 12 -28 28v50c0 12 7 23 18 27l37 14v152l-16 -7c-3 -1 -8 -2 -11 -2c-15 0 -28 13 -28 29v50zM176 91l-77 -30v-152
l77 30v152z" fill="currentColor"/>
</g>
</svg>
